<svg width="22" height="21" viewBox="0 0 22 21" fill="none" xmlns="http://www.w3.org/2000/svg">
<path d="M9.43279 0.894223C9.01443 1.02547 8.68631 1.41922 8.68631 1.79657C8.68631 2.18211 9.03904 2.58407 9.48201 2.71532C9.58865 2.74813 9.89217 2.77274 10.1547 2.77274H10.6222V3.36336V3.96219L10.3433 3.995C9.93318 4.04422 9.29334 4.19188 8.85037 4.33133C8.4074 4.47899 7.40662 4.95477 7.07849 5.16805L6.85701 5.31571L6.01209 4.46258L5.15076 3.60946L4.39607 4.36415L3.64138 5.11883L4.44529 5.92274L5.24099 6.71844L4.91287 7.16141C4.11717 8.21961 3.60857 9.39266 3.36248 10.7052C3.24763 11.3532 3.24763 12.7723 3.37068 13.445C3.6906 15.1431 4.42888 16.5704 5.63474 17.7845C6.85701 19.0231 8.30076 19.7778 10.0234 20.0895C10.6961 20.2126 12.1152 20.2126 12.7879 20.0895C14.4859 19.7778 15.9297 19.0313 17.1519 17.8091C18.3742 16.595 19.1207 15.1513 19.4324 13.445C19.5554 12.7723 19.5554 11.3532 19.4406 10.7052C19.1945 9.39266 18.6859 8.21141 17.8902 7.16141L17.5621 6.71844L18.3578 5.92274L19.1617 5.11883L18.407 4.36415L17.6523 3.60946L16.791 4.47079L15.9297 5.33211L15.7574 5.20907C15.5441 5.06141 14.7484 4.65125 14.4039 4.5036C13.9363 4.31493 13.2308 4.12625 12.6976 4.03602L12.1726 3.95399V3.35516V2.75633H12.6976C13.0422 2.75633 13.2965 2.73172 13.4359 2.6825C14.3957 2.34618 14.3957 1.23055 13.4359 0.88602C13.157 0.795785 9.75271 0.795785 9.43279 0.894223ZM12.6484 5.59461C15.2816 6.11141 17.3488 8.1786 17.882 10.8446C17.9969 11.427 17.9969 12.7067 17.882 13.2891C17.3488 15.9552 15.298 18.0141 12.6238 18.5473C12.0414 18.6622 10.7617 18.6622 10.1793 18.5473C7.51326 18.0141 5.45427 15.9552 4.92107 13.2891C4.86365 12.9938 4.83904 12.6329 4.83904 12.0669C4.83904 11.5009 4.86365 11.1399 4.92107 10.8446C5.48709 8.03094 7.72654 5.91454 10.5484 5.52899C11.016 5.46336 12.1644 5.49618 12.6484 5.59461Z" fill="#FFEB31"/>
<path d="M8.62868 8.74458C8.36618 8.89224 8.26774 9.30239 8.4236 9.54028C8.46462 9.60591 8.80915 9.97505 9.18649 10.3524L9.86735 11.0333L9.77712 11.3532C9.38337 12.8297 11.024 14.011 12.3037 13.1825C12.8041 12.8543 13.0584 12.3868 13.0584 11.7715C13.0666 11.468 13.042 11.3532 12.9271 11.1153C12.5826 10.3524 11.7541 9.94224 10.9912 10.1473L10.7041 10.2211L9.94118 9.45825C9.22751 8.74458 9.17009 8.70356 8.97321 8.67896C8.84196 8.67896 8.71071 8.69536 8.62868 8.74458Z" fill="#FFEB31"/>
</svg>
