<svg width="20" height="19" viewBox="0 0 20 19" fill="none" xmlns="http://www.w3.org/2000/svg">
<g clip-path="url(#clip0_5610_177163)">
<path d="M19.0889 9.22778C19.0889 11.6396 18.1308 13.9526 16.4254 15.658C14.72 17.3634 12.4069 18.3215 9.99512 18.3215C7.5833 18.3215 5.27027 17.3634 3.56487 15.658C1.85946 13.9526 0.901367 11.6396 0.901367 9.22778C0.901367 6.81597 1.85946 4.50294 3.56487 2.79753C5.27027 1.09212 7.5833 0.134033 9.99512 0.134033C12.4069 0.134033 14.72 1.09212 16.4254 2.79753C18.1308 4.50294 19.0889 6.81597 19.0889 9.22778ZM7.14877 6.99186H8.08657C8.24343 6.99186 8.36847 6.86341 8.38893 6.70768C8.49124 5.96199 9.00276 5.41864 9.91441 5.41864C10.6942 5.41864 11.4081 5.80853 11.4081 6.74633C11.4081 7.46814 10.9829 7.80006 10.3111 8.30477C9.54611 8.86062 8.94024 9.50969 8.98344 10.5634L8.98685 10.8101C8.98804 10.8847 9.01851 10.9558 9.07167 11.0081C9.12484 11.0604 9.19644 11.0897 9.27103 11.0897H10.1929C10.2683 11.0897 10.3406 11.0598 10.3939 11.0065C10.4471 10.9532 10.4771 10.8809 10.4771 10.8055V10.6862C10.4771 9.87003 10.7874 9.63245 11.6252 8.99703C12.3174 8.47073 13.0393 7.88646 13.0393 6.65994C13.0393 4.94235 11.5888 4.11255 10.0008 4.11255C8.56058 4.11255 6.98281 4.78321 6.87482 6.71109C6.87327 6.7478 6.87924 6.78444 6.89237 6.81875C6.90549 6.85307 6.9255 6.88434 6.95116 6.91064C6.97682 6.93694 7.00759 6.95771 7.04157 6.97167C7.07556 6.98564 7.11204 6.99251 7.14877 6.99186ZM9.79165 14.3157C10.485 14.3157 10.9613 13.8679 10.9613 13.262C10.9613 12.6345 10.4839 12.1935 9.79165 12.1935C9.1278 12.1935 8.6447 12.6345 8.6447 13.262C8.6447 13.8679 9.12666 14.3157 9.79165 14.3157Z" fill="#777777"/>
</g>
<defs>
<clipPath id="clip0_5610_177163">
<rect width="18.1875" height="18.1875" fill="white" transform="translate(0.901367 0.134033)"/>
</clipPath>
</defs>
</svg>
